<svg xmlns="http://www.w3.org/2000/svg" width="32" height="50" viewBox="0 0 32 50">
  <path id="server" d="M14,0a3.445,3.445,0,0,0-2.406,1.094.467.467,0,0,0-.062.063L9.688,3.438a1.259,1.259,0,0,0-.125.125,1.839,1.839,0,0,0-.344.5,1.242,1.242,0,0,0-.062.125c0,.012-.027.02-.031.031v.063A2.261,2.261,0,0,0,9,5V48a1.926,1.926,0,0,0,2,2H39a1.926,1.926,0,0,0,2-2V5a2.069,2.069,0,0,0-.469-1.312.48.48,0,0,0-.031-.062l-.031-.031a.95.95,0,0,0-.094-.125L38.406,1.094c0-.008-.027.008-.031,0s0-.027,0-.031A2.819,2.819,0,0,0,36.094,0Zm0,2H36.094a1.327,1.327,0,0,1,.719.313l.031.031L37.375,3H12.594L13,2.5h.031C13.414,2.117,13.6,2,14,2ZM11,5H39V48H11Zm5,4a1.926,1.926,0,0,0-2,2v5a2.143,2.143,0,0,0,.25,1A2.143,2.143,0,0,0,14,18v5a1.926,1.926,0,0,0,2,2H34a1.926,1.926,0,0,0,2-2V18a2.143,2.143,0,0,0-.25-1A2.143,2.143,0,0,0,36,16V11a1.926,1.926,0,0,0-2-2Zm0,2H34v5H16Zm0,7H34v5H16Zm9,14a2,2,0,1,0,2,2A2,2,0,0,0,25,32Zm0,7a2,2,0,1,0,2,2A2,2,0,0,0,25,39Z" transform="translate(-9)"/>
</svg>
